# Wavefront OBJ
# Created by fragMOTION
# http://www.fragmosoft.com

#mtllib Sci-fi_floor2.mtl
# 24 vertices
v -2.38096 -0.05 -50
v -2.38096 -0.05 -2.08812
v -50 -0.05 -50
v -50 -0.05 -2.08812
v 50 0.05 -50
v 50 0.05 50
v -2.38096 -0.05 -50
v -2.38096 -0.05 -2.08812
v -50 -0.05 -2.08812
v -50 0.05 50
v -50 -0.05 -50
v -50 0.05 -50
v -2.38096 -0.05 -2.08812
v 50 0.05 50
v -50 -0.05 -2.08812
v -50 0.05 50
v -50 0.05 -50
v 50 0.05 -50
v -50 -0.05 -50
v -2.38096 -0.05 -50
v 50 0.05 50
v 50 0.05 -50
v -50 0.05 50
v -50 0.05 -50
# 24 texture vertices
vt 3.00787 -41.9076
vt 43.1654 -41.9076
vt 3.00787 -1.75016
vt 43.1654 -1.75016
vt -40.9076 42.1654
vt -40.9076 -2.00955
vt 42.9076 42.1654
vt -0.750159 -2.00955
vt 2.75016 -0.19685
vt 42.9076 -0.19685
vt -40.9076 0.19685
vt 42.9076 0.19685
vt 3.00787 -1.75186
vt 43.1654 -1.75186
vt -41.1654 41.9077
vt 43.1654 41.9077
vt -41.1654 0.19685
vt -41.1654 -0.19685
vt 43.1654 0.19685
vt -1.00787 -0.19685
vt 8.02756 6.98461
vt 1 6.98461
vt 8.02756 0
vt 1 0
# 24 normals
vn 0 -1 0
vn 0 -1 0
vn 0 -1 0
vn 0 -1 0
vn 0.008912 -0.99996 0
vn 0.008912 -0.99996 0
vn 0.008912 -0.99996 0
vn 0.008912 -0.99996 0
vn -1 0 0
vn -1 0 0
vn -1 0 0
vn -1 0 0
vn 0 -0.999959 0.009018
vn 0 -0.999959 0.009018
vn 0 -0.999959 0.009018
vn 0 -0.999959 0.009018
vn 0 0 -1
vn 0 0 -1
vn 0 0 -1
vn 0 0 -1
vn 0 1 0
vn 0 1 0
vn 0 1 0
vn 0 1 0
usemtl Material
g Mesh
s off
f 1/1/1 2/3/2 3/2/3
f 4/4/4 3/2/3 2/3/2
f 5/5/5 6/7/6 7/6/7
f 8/8/8 7/6/7 6/7/6
f 9/9/9 10/11/10 11/10/11
f 12/12/12 11/10/11 10/11/10
f 13/13/13 14/15/14 15/14/15
f 16/16/16 15/14/15 14/15/14
f 17/17/17 18/19/18 19/18/19
f 20/20/20 19/18/19 18/19/18
usemtl Material1
g Mesh
s off
f 21/21/21 22/23/22 23/22/23
f 24/24/24 23/22/23 22/23/22
